<?xml version="1.0" encoding="UTF-8"?>
<svg xmlns="http://www.w3.org/2000/svg" version="1.1" width="400" height="400" viewBox="0 0 400 400"><rect x="0" y="0" width="400" height="400" fill="#ffffff"/><g transform="scale(13.793)"><g transform="translate(0,0)"><path fill-rule="evenodd" d="M8 0L8 4L10 4L10 3L11 3L11 4L12 4L12 2L11 2L11 0ZM12 0L12 1L13 1L13 2L14 2L14 3L13 3L13 5L11 5L11 6L10 6L10 7L9 7L9 5L8 5L8 7L9 7L9 8L10 8L10 7L11 7L11 6L12 6L12 8L11 8L11 9L7 9L7 8L4 8L4 9L2 9L2 8L0 8L0 9L1 9L1 11L0 11L0 13L1 13L1 11L2 11L2 12L4 12L4 11L5 11L5 13L4 13L4 14L3 14L3 15L5 15L5 19L2 19L2 20L0 20L0 21L8 21L8 22L9 22L9 23L8 23L8 25L9 25L9 26L10 26L10 27L8 27L8 29L9 29L9 28L10 28L10 27L11 27L11 28L12 28L12 29L14 29L14 27L15 27L15 28L16 28L16 24L15 24L15 23L16 23L16 21L18 21L18 22L17 22L17 25L18 25L18 24L19 24L19 26L20 26L20 25L21 25L21 27L20 27L20 29L22 29L22 28L23 28L23 29L25 29L25 28L26 28L26 27L27 27L27 29L28 29L28 28L29 28L29 24L28 24L28 23L29 23L29 17L28 17L28 16L29 16L29 13L28 13L28 12L29 12L29 8L25 8L25 9L24 9L24 8L23 8L23 9L22 9L22 11L21 11L21 5L19 5L19 3L20 3L20 1L19 1L19 0L16 0L16 1L17 1L17 3L18 3L18 4L17 4L17 5L16 5L16 3L15 3L15 2L14 2L14 1L15 1L15 0ZM18 1L18 2L19 2L19 1ZM9 2L9 3L10 3L10 2ZM13 5L13 8L12 8L12 9L11 9L11 10L9 10L9 13L10 13L10 14L9 14L9 15L6 15L6 16L8 16L8 17L6 17L6 18L7 18L7 19L5 19L5 20L9 20L9 22L10 22L10 23L9 23L9 25L11 25L11 26L12 26L12 25L13 25L13 26L14 26L14 25L13 25L13 24L14 24L14 22L13 22L13 21L12 21L12 20L14 20L14 21L16 21L16 20L14 20L14 19L12 19L12 20L11 20L11 18L12 18L12 17L13 17L13 16L14 16L14 18L15 18L15 17L16 17L16 19L17 19L17 17L16 17L16 16L17 16L17 15L20 15L20 14L22 14L22 13L23 13L23 16L22 16L22 15L21 15L21 16L22 16L22 17L20 17L20 16L18 16L18 17L19 17L19 18L18 18L18 21L20 21L20 20L19 20L19 19L20 19L20 18L22 18L22 17L23 17L23 16L24 16L24 17L26 17L26 18L25 18L25 19L24 19L24 18L23 18L23 19L21 19L21 20L26 20L26 21L25 21L25 22L27 22L27 23L25 23L25 24L26 24L26 25L24 25L24 26L23 26L23 25L22 25L22 27L21 27L21 28L22 28L22 27L23 27L23 28L24 28L24 27L25 27L25 26L28 26L28 24L27 24L27 23L28 23L28 20L27 20L27 19L28 19L28 18L27 18L27 15L28 15L28 14L27 14L27 15L24 15L24 13L27 13L27 11L28 11L28 10L25 10L25 11L26 11L26 12L24 12L24 11L22 11L22 13L20 13L20 12L21 12L21 11L20 11L20 8L19 8L19 11L20 11L20 12L18 12L18 13L17 13L17 15L16 15L16 16L14 16L14 15L15 15L15 14L16 14L16 12L17 12L17 11L18 11L18 10L17 10L17 9L16 9L16 8L17 8L17 7L18 7L18 6L19 6L19 7L20 7L20 6L19 6L19 5L17 5L17 7L16 7L16 5L15 5L15 7L16 7L16 8L15 8L15 9L14 9L14 5ZM4 9L4 10L3 10L3 11L4 11L4 10L7 10L7 9ZM12 9L12 10L11 10L11 11L10 11L10 13L11 13L11 12L12 12L12 13L13 13L13 12L12 12L12 11L13 11L13 9ZM15 9L15 11L14 11L14 12L16 12L16 11L17 11L17 10L16 10L16 9ZM6 11L6 12L8 12L8 11ZM6 13L6 14L8 14L8 13ZM14 13L14 14L15 14L15 13ZM1 14L1 15L2 15L2 14ZM10 14L10 15L9 15L9 17L8 17L8 19L10 19L10 18L11 18L11 17L12 17L12 16L13 16L13 15L12 15L12 16L10 16L10 15L11 15L11 14ZM2 16L2 17L0 17L0 18L2 18L2 17L3 17L3 18L4 18L4 16ZM26 18L26 19L27 19L27 18ZM21 21L21 24L24 24L24 21ZM18 22L18 23L19 23L19 22ZM22 22L22 23L23 23L23 22ZM10 23L10 24L11 24L11 25L12 25L12 24L13 24L13 23L12 23L12 24L11 24L11 23ZM12 27L12 28L13 28L13 27ZM17 27L17 29L18 29L18 27ZM0 0L0 7L7 7L7 0ZM1 1L1 6L6 6L6 1ZM2 2L2 5L5 5L5 2ZM22 0L22 7L29 7L29 0ZM23 1L23 6L28 6L28 1ZM24 2L24 5L27 5L27 2ZM0 22L0 29L7 29L7 22ZM1 23L1 28L6 28L6 23ZM2 24L2 27L5 27L5 24Z" fill="#000000"/></g></g></svg>
