<?xml version="1.0" encoding="UTF-8"?>
<svg xmlns="http://www.w3.org/2000/svg" version="1.1" width="400" height="400" viewBox="0 0 400 400"><rect x="0" y="0" width="400" height="400" fill="#ffffff"/><g transform="scale(7.547)"><g transform="translate(0,0)"><path fill-rule="evenodd" d="M8 0L8 1L9 1L9 0ZM12 0L12 1L13 1L13 2L14 2L14 1L15 1L15 3L14 3L14 4L13 4L13 6L12 6L12 4L11 4L11 3L10 3L10 4L9 4L9 5L10 5L10 4L11 4L11 6L10 6L10 7L11 7L11 10L9 10L9 11L8 11L8 9L7 9L7 8L6 8L6 9L5 9L5 8L3 8L3 9L2 9L2 8L0 8L0 11L2 11L2 10L3 10L3 11L4 11L4 12L5 12L5 11L8 11L8 12L10 12L10 11L11 11L11 13L13 13L13 11L15 11L15 12L14 12L14 14L13 14L13 16L12 16L12 14L11 14L11 16L12 16L12 18L13 18L13 20L15 20L15 21L12 21L12 20L11 20L11 22L9 22L9 21L10 21L10 19L9 19L9 17L10 17L10 16L9 16L9 17L8 17L8 14L6 14L6 13L7 13L7 12L6 12L6 13L4 13L4 15L7 15L7 16L6 16L6 17L7 17L7 18L6 18L6 19L7 19L7 20L3 20L3 17L4 17L4 19L5 19L5 16L3 16L3 14L2 14L2 16L0 16L0 17L1 17L1 18L0 18L0 19L1 19L1 20L0 20L0 22L1 22L1 24L0 24L0 26L2 26L2 27L1 27L1 28L0 28L0 31L1 31L1 32L0 32L0 35L1 35L1 36L2 36L2 35L3 35L3 36L4 36L4 35L5 35L5 36L6 36L6 37L5 37L5 39L4 39L4 40L3 40L3 38L4 38L4 37L3 37L3 38L1 38L1 39L0 39L0 43L1 43L1 44L3 44L3 45L4 45L4 44L3 44L3 43L7 43L7 44L6 44L6 45L8 45L8 46L9 46L9 47L10 47L10 46L9 46L9 45L8 45L8 44L10 44L10 43L7 43L7 42L10 42L10 41L9 41L9 39L13 39L13 36L14 36L14 37L15 37L15 38L14 38L14 39L17 39L17 41L18 41L18 43L19 43L19 41L20 41L20 40L23 40L23 41L21 41L21 42L20 42L20 44L17 44L17 43L16 43L16 40L15 40L15 43L14 43L14 42L12 42L12 41L14 41L14 40L11 40L11 44L12 44L12 43L14 43L14 44L13 44L13 45L12 45L12 46L11 46L11 47L12 47L12 49L11 49L11 50L12 50L12 52L15 52L15 53L17 53L17 52L18 52L18 53L20 53L20 52L21 52L21 53L22 53L22 52L21 52L21 51L19 51L19 50L21 50L21 49L20 49L20 48L22 48L22 49L25 49L25 50L24 50L24 53L28 53L28 52L26 52L26 51L29 51L29 52L30 52L30 53L31 53L31 52L30 52L30 51L33 51L33 52L32 52L32 53L33 53L33 52L34 52L34 53L35 53L35 52L36 52L36 53L37 53L37 52L36 52L36 51L33 51L33 49L34 49L34 48L35 48L35 47L37 47L37 48L36 48L36 49L35 49L35 50L37 50L37 51L38 51L38 53L39 53L39 51L38 51L38 50L39 50L39 47L41 47L41 48L40 48L40 49L41 49L41 50L47 50L47 51L45 51L45 53L47 53L47 52L48 52L48 53L49 53L49 52L51 52L51 51L49 51L49 50L50 50L50 49L49 49L49 48L50 48L50 46L51 46L51 45L53 45L53 44L52 44L52 43L53 43L53 42L52 42L52 43L51 43L51 42L50 42L50 40L51 40L51 41L52 41L52 39L53 39L53 37L52 37L52 36L53 36L53 35L52 35L52 36L51 36L51 38L50 38L50 39L48 39L48 38L49 38L49 37L50 37L50 35L49 35L49 33L50 33L50 34L52 34L52 33L53 33L53 32L52 32L52 33L51 33L51 31L53 31L53 30L52 30L52 29L50 29L50 28L51 28L51 26L52 26L52 28L53 28L53 24L52 24L52 23L51 23L51 26L50 26L50 27L49 27L49 25L50 25L50 24L48 24L48 23L49 23L49 22L47 22L47 20L48 20L48 21L49 21L49 20L50 20L50 21L51 21L51 19L49 19L49 18L52 18L52 19L53 19L53 18L52 18L52 17L53 17L53 11L52 11L52 12L51 12L51 13L50 13L50 12L46 12L46 13L44 13L44 12L45 12L45 11L49 11L49 10L50 10L50 11L51 11L51 10L52 10L52 9L53 9L53 8L52 8L52 9L51 9L51 10L50 10L50 9L47 9L47 8L46 8L46 9L45 9L45 6L44 6L44 7L43 7L43 3L44 3L44 4L45 4L45 3L44 3L44 1L43 1L43 0L40 0L40 1L39 1L39 0L38 0L38 1L37 1L37 0L34 0L34 3L35 3L35 6L34 6L34 7L33 7L33 6L32 6L32 7L31 7L31 6L30 6L30 5L31 5L31 4L33 4L33 5L34 5L34 4L33 4L33 2L31 2L31 0L30 0L30 1L29 1L29 2L28 2L28 0L27 0L27 1L26 1L26 0L23 0L23 3L22 3L22 2L20 2L20 1L19 1L19 0L14 0L14 1L13 1L13 0ZM32 0L32 1L33 1L33 0ZM10 1L10 2L11 2L11 1ZM16 1L16 2L17 2L17 3L15 3L15 4L14 4L14 5L19 5L19 4L17 4L17 3L18 3L18 2L19 2L19 3L20 3L20 4L21 4L21 3L20 3L20 2L19 2L19 1ZM35 1L35 3L36 3L36 1ZM38 1L38 3L37 3L37 4L36 4L36 5L37 5L37 7L36 7L36 6L35 6L35 7L34 7L34 9L35 9L35 7L36 7L36 8L37 8L37 9L36 9L36 10L35 10L35 12L37 12L37 11L40 11L40 12L39 12L39 13L40 13L40 12L42 12L42 11L43 11L43 10L42 10L42 9L41 9L41 10L42 10L42 11L40 11L40 10L37 10L37 9L38 9L38 8L39 8L39 9L40 9L40 8L41 8L41 7L42 7L42 8L43 8L43 7L42 7L42 3L43 3L43 2L39 2L39 1ZM25 2L25 3L23 3L23 5L24 5L24 4L27 4L27 2ZM30 2L30 4L29 4L29 3L28 3L28 4L29 4L29 5L30 5L30 4L31 4L31 2ZM39 3L39 4L37 4L37 5L38 5L38 7L39 7L39 6L40 6L40 7L41 7L41 5L39 5L39 4L41 4L41 3ZM25 5L25 8L28 8L28 5ZM8 6L8 8L9 8L9 6ZM11 6L11 7L12 7L12 8L13 8L13 9L12 9L12 10L11 10L11 11L13 11L13 10L14 10L14 8L15 8L15 7L16 7L16 8L17 8L17 9L16 9L16 10L17 10L17 9L18 9L18 8L17 8L17 7L18 7L18 6L17 6L17 7L16 7L16 6L15 6L15 7L14 7L14 6L13 6L13 7L12 7L12 6ZM19 6L19 10L18 10L18 11L19 11L19 12L20 12L20 13L19 13L19 14L18 14L18 12L17 12L17 11L16 11L16 12L17 12L17 13L16 13L16 14L18 14L18 15L17 15L17 16L15 16L15 17L14 17L14 16L13 16L13 17L14 17L14 18L15 18L15 20L20 20L20 21L21 21L21 22L22 22L22 24L23 24L23 26L24 26L24 22L22 22L22 18L23 18L23 19L24 19L24 18L23 18L23 17L25 17L25 18L26 18L26 17L28 17L28 18L27 18L27 21L28 21L28 18L30 18L30 17L31 17L31 19L29 19L29 20L30 20L30 21L29 21L29 22L26 22L26 21L25 21L25 23L26 23L26 24L31 24L31 25L32 25L32 24L33 24L33 25L34 25L34 27L35 27L35 30L33 30L33 29L32 29L32 30L33 30L33 31L34 31L34 32L37 32L37 33L40 33L40 34L36 34L36 33L35 33L35 36L33 36L33 37L32 37L32 35L34 35L34 33L33 33L33 32L32 32L32 31L31 31L31 30L30 30L30 29L31 29L31 28L33 28L33 26L32 26L32 27L30 27L30 26L29 26L29 27L30 27L30 29L29 29L29 30L30 30L30 31L28 31L28 33L27 33L27 31L26 31L26 29L25 29L25 30L24 30L24 27L22 27L22 28L20 28L20 30L17 30L17 31L16 31L16 30L15 30L15 31L16 31L16 32L14 32L14 31L13 31L13 30L14 30L14 29L13 29L13 28L11 28L11 26L13 26L13 25L15 25L15 24L14 24L14 23L16 23L16 22L14 22L14 23L11 23L11 26L10 26L10 25L9 25L9 26L10 26L10 29L8 29L8 30L7 30L7 29L6 29L6 30L5 30L5 29L4 29L4 27L3 27L3 28L2 28L2 30L1 30L1 31L3 31L3 30L4 30L4 33L3 33L3 34L5 34L5 35L6 35L6 36L8 36L8 35L9 35L9 34L10 34L10 33L11 33L11 34L12 34L12 33L13 33L13 32L14 32L14 33L15 33L15 34L13 34L13 35L14 35L14 36L15 36L15 37L16 37L16 38L17 38L17 39L18 39L18 38L20 38L20 37L21 37L21 38L22 38L22 39L24 39L24 40L27 40L27 41L23 41L23 42L22 42L22 43L21 43L21 44L20 44L20 45L22 45L22 44L23 44L23 46L21 46L21 47L22 47L22 48L24 48L24 47L23 47L23 46L24 46L24 44L26 44L26 42L27 42L27 41L29 41L29 42L28 42L28 44L29 44L29 43L30 43L30 45L31 45L31 46L30 46L30 47L31 47L31 46L32 46L32 48L31 48L31 50L32 50L32 48L34 48L34 46L33 46L33 45L36 45L36 46L37 46L37 45L36 45L36 44L38 44L38 45L39 45L39 46L38 46L38 47L39 47L39 46L40 46L40 42L39 42L39 41L38 41L38 40L40 40L40 41L41 41L41 43L43 43L43 44L41 44L41 45L43 45L43 44L47 44L47 43L46 43L46 42L47 42L47 41L49 41L49 40L47 40L47 39L46 39L46 37L45 37L45 36L46 36L46 35L47 35L47 36L48 36L48 37L47 37L47 38L48 38L48 37L49 37L49 35L48 35L48 34L47 34L47 33L49 33L49 31L51 31L51 30L48 30L48 29L47 29L47 30L48 30L48 32L47 32L47 33L46 33L46 34L45 34L45 35L44 35L44 33L45 33L45 32L46 32L46 30L45 30L45 31L44 31L44 30L43 30L43 31L44 31L44 33L43 33L43 34L42 34L42 36L41 36L41 35L40 35L40 34L41 34L41 33L40 33L40 32L41 32L41 31L39 31L39 30L42 30L42 29L41 29L41 27L42 27L42 28L43 28L43 29L44 29L44 25L43 25L43 26L41 26L41 25L40 25L40 24L41 24L41 22L37 22L37 23L36 23L36 24L35 24L35 22L34 22L34 23L32 23L32 22L33 22L33 20L34 20L34 21L36 21L36 20L37 20L37 21L40 21L40 20L41 20L41 21L43 21L43 20L42 20L42 19L45 19L45 20L46 20L46 19L48 19L48 20L49 20L49 19L48 19L48 18L49 18L49 17L48 17L48 16L50 16L50 17L52 17L52 16L50 16L50 14L49 14L49 13L46 13L46 14L49 14L49 15L47 15L47 17L48 17L48 18L46 18L46 19L45 19L45 17L46 17L46 15L45 15L45 14L44 14L44 13L43 13L43 15L42 15L42 14L39 14L39 15L38 15L38 14L37 14L37 15L35 15L35 13L34 13L34 12L33 12L33 14L32 14L32 11L33 11L33 8L30 8L30 9L32 9L32 10L30 10L30 11L29 11L29 9L25 9L25 10L24 10L24 6L23 6L23 11L25 11L25 10L26 10L26 12L25 12L25 13L27 13L27 14L24 14L24 15L27 15L27 16L26 16L26 17L25 17L25 16L21 16L21 18L20 18L20 19L18 19L18 18L17 18L17 19L16 19L16 17L20 17L20 13L21 13L21 15L22 15L22 12L21 12L21 11L19 11L19 10L20 10L20 9L21 9L21 10L22 10L22 6L21 6L21 8L20 8L20 6ZM26 6L26 7L27 7L27 6ZM29 6L29 7L30 7L30 6ZM13 7L13 8L14 8L14 7ZM1 9L1 10L2 10L2 9ZM3 9L3 10L5 10L5 9ZM6 9L6 10L7 10L7 9ZM44 10L44 11L45 11L45 10ZM27 11L27 13L29 13L29 14L28 14L28 16L29 16L29 14L31 14L31 13L29 13L29 12L28 12L28 11ZM0 12L0 15L1 15L1 13L3 13L3 12ZM9 13L9 14L10 14L10 13ZM51 13L51 15L52 15L52 13ZM14 14L14 15L15 15L15 14ZM34 15L34 16L31 16L31 17L33 17L33 19L34 19L34 18L35 18L35 17L36 17L36 18L37 18L37 19L38 19L38 17L40 17L40 19L39 19L39 20L40 20L40 19L41 19L41 17L40 17L40 16L35 16L35 15ZM41 15L41 16L42 16L42 15ZM44 15L44 16L45 16L45 15ZM42 17L42 18L44 18L44 17ZM1 18L1 19L2 19L2 18ZM25 19L25 20L26 20L26 19ZM31 19L31 20L32 20L32 19ZM1 20L1 22L2 22L2 20ZM7 20L7 21L6 21L6 22L3 22L3 25L2 25L2 26L3 26L3 25L4 25L4 24L7 24L7 23L8 23L8 24L10 24L10 23L8 23L8 22L7 22L7 21L8 21L8 20ZM23 20L23 21L24 21L24 20ZM52 20L52 21L53 21L53 20ZM30 21L30 22L29 22L29 23L30 23L30 22L32 22L32 21ZM45 21L45 23L44 23L44 24L45 24L45 23L46 23L46 21ZM6 22L6 23L7 23L7 22ZM19 22L19 24L20 24L20 22ZM42 22L42 23L43 23L43 22ZM17 23L17 24L18 24L18 23ZM37 23L37 24L36 24L36 25L35 25L35 24L34 24L34 25L35 25L35 26L36 26L36 29L37 29L37 30L35 30L35 31L37 31L37 30L38 30L38 29L39 29L39 28L38 28L38 29L37 29L37 25L38 25L38 27L39 27L39 26L40 26L40 25L38 25L38 24L39 24L39 23ZM12 24L12 25L13 25L13 24ZM5 25L5 28L8 28L8 25ZM25 25L25 28L28 28L28 25ZM45 25L45 28L48 28L48 25ZM6 26L6 27L7 27L7 26ZM14 26L14 27L15 27L15 26ZM16 26L16 28L15 28L15 29L18 29L18 28L19 28L19 27L18 27L18 26ZM26 26L26 27L27 27L27 26ZM46 26L46 27L47 27L47 26ZM17 27L17 28L18 28L18 27ZM11 29L11 31L10 31L10 32L9 32L9 31L7 31L7 30L6 30L6 31L5 31L5 32L6 32L6 33L5 33L5 34L6 34L6 35L8 35L8 34L9 34L9 33L10 33L10 32L11 32L11 31L12 31L12 29ZM27 29L27 30L28 30L28 29ZM21 30L21 32L22 32L22 33L23 33L23 32L22 32L22 30ZM23 30L23 31L24 31L24 33L25 33L25 37L24 37L24 34L23 34L23 36L22 36L22 34L21 34L21 33L20 33L20 31L19 31L19 33L18 33L18 32L16 32L16 34L17 34L17 35L16 35L16 37L17 37L17 36L18 36L18 37L20 37L20 36L18 36L18 35L19 35L19 34L21 34L21 36L22 36L22 37L23 37L23 38L24 38L24 39L25 39L25 38L26 38L26 37L27 37L27 38L32 38L32 37L28 37L28 36L31 36L31 35L28 35L28 34L29 34L29 33L28 33L28 34L27 34L27 33L25 33L25 31L24 31L24 30ZM6 31L6 32L7 32L7 33L6 33L6 34L7 34L7 33L8 33L8 32L7 32L7 31ZM38 31L38 32L39 32L39 31ZM1 32L1 33L2 33L2 32ZM17 33L17 34L18 34L18 33ZM30 33L30 34L33 34L33 33ZM10 35L10 37L6 37L6 38L8 38L8 39L9 39L9 38L10 38L10 37L11 37L11 38L12 38L12 36L11 36L11 35ZM26 35L26 36L27 36L27 35ZM37 35L37 36L35 36L35 39L34 39L34 40L32 40L32 39L31 39L31 40L30 40L30 43L31 43L31 44L32 44L32 41L34 41L34 42L35 42L35 43L38 43L38 44L39 44L39 43L38 43L38 42L35 42L35 41L34 41L34 40L35 40L35 39L37 39L37 40L36 40L36 41L37 41L37 40L38 40L38 39L41 39L41 40L42 40L42 39L41 39L41 38L40 38L40 37L41 37L41 36L40 36L40 35L39 35L39 36L38 36L38 35ZM43 35L43 37L42 37L42 38L43 38L43 37L44 37L44 39L45 39L45 37L44 37L44 35ZM39 36L39 37L40 37L40 36ZM33 37L33 38L34 38L34 37ZM37 37L37 39L38 39L38 37ZM51 38L51 39L52 39L52 38ZM1 39L1 40L2 40L2 39ZM5 39L5 41L3 41L3 42L2 42L2 43L3 43L3 42L7 42L7 41L6 41L6 40L7 40L7 39ZM28 39L28 40L29 40L29 39ZM42 41L42 42L44 42L44 43L45 43L45 41ZM23 42L23 43L25 43L25 42ZM33 43L33 44L34 44L34 43ZM49 43L49 44L50 44L50 43ZM14 44L14 45L13 45L13 46L15 46L15 45L17 45L17 46L16 46L16 47L18 47L18 48L17 48L17 49L16 49L16 48L15 48L15 47L14 47L14 48L13 48L13 49L14 49L14 50L13 50L13 51L15 51L15 52L16 52L16 50L17 50L17 51L18 51L18 49L19 49L19 48L20 48L20 47L19 47L19 45L17 45L17 44ZM25 45L25 48L28 48L28 45ZM45 45L45 48L48 48L48 45ZM26 46L26 47L27 47L27 46ZM41 46L41 47L43 47L43 46ZM46 46L46 47L47 47L47 46ZM8 48L8 50L10 50L10 48ZM37 48L37 50L38 50L38 48ZM43 48L43 49L44 49L44 48ZM52 48L52 49L51 49L51 50L52 50L52 49L53 49L53 48ZM27 49L27 50L29 50L29 49ZM48 49L48 50L49 50L49 49ZM22 50L22 51L23 51L23 50ZM25 50L25 51L26 51L26 50ZM8 51L8 53L10 53L10 52L11 52L11 51ZM42 51L42 52L43 52L43 53L44 53L44 52L43 52L43 51ZM48 51L48 52L49 52L49 51ZM52 51L52 52L53 52L53 51ZM0 0L0 7L7 7L7 0ZM1 1L1 6L6 6L6 1ZM2 2L2 5L5 5L5 2ZM46 0L46 7L53 7L53 0ZM47 1L47 6L52 6L52 1ZM48 2L48 5L51 5L51 2ZM0 46L0 53L7 53L7 46ZM1 47L1 52L6 52L6 47ZM2 48L2 51L5 51L5 48Z" fill="#000000"/></g></g></svg>
