<?xml version="1.0" encoding="UTF-8"?>
<svg xmlns="http://www.w3.org/2000/svg" version="1.1" width="400" height="400" viewBox="0 0 400 400"><rect x="0" y="0" width="400" height="400" fill="#ffffff"/><g transform="scale(10.811)"><g transform="translate(0,0)"><path fill-rule="evenodd" d="M9 0L9 1L8 1L8 2L9 2L9 3L8 3L8 4L10 4L10 7L11 7L11 4L12 4L12 5L13 5L13 6L12 6L12 9L13 9L13 8L14 8L14 9L15 9L15 10L18 10L18 11L19 11L19 12L17 12L17 11L16 11L16 12L17 12L17 14L16 14L16 13L12 13L12 11L13 11L13 10L11 10L11 12L10 12L10 13L9 13L9 15L7 15L7 14L6 14L6 13L8 13L8 10L9 10L9 11L10 11L10 9L11 9L11 8L6 8L6 9L7 9L7 10L4 10L4 11L5 11L5 12L4 12L4 13L5 13L5 14L3 14L3 13L2 13L2 12L3 12L3 11L2 11L2 12L1 12L1 11L0 11L0 13L1 13L1 15L2 15L2 16L3 16L3 15L4 15L4 17L3 17L3 18L4 18L4 19L5 19L5 20L6 20L6 21L5 21L5 22L6 22L6 23L5 23L5 24L4 24L4 23L3 23L3 19L2 19L2 22L1 22L1 23L3 23L3 25L5 25L5 29L7 29L7 28L6 28L6 27L7 27L7 26L9 26L9 25L10 25L10 27L11 27L11 28L10 28L10 31L9 31L9 28L8 28L8 31L9 31L9 32L8 32L8 37L10 37L10 36L9 36L9 34L10 34L10 33L11 33L11 29L12 29L12 30L13 30L13 31L12 31L12 33L13 33L13 32L14 32L14 33L16 33L16 34L15 34L15 35L14 35L14 36L16 36L16 35L18 35L18 36L17 36L17 37L18 37L18 36L19 36L19 37L20 37L20 36L19 36L19 34L20 34L20 35L21 35L21 36L22 36L22 37L27 37L27 36L29 36L29 37L32 37L32 34L33 34L33 35L34 35L34 33L35 33L35 35L36 35L36 36L34 36L34 37L37 37L37 32L36 32L36 31L37 31L37 30L35 30L35 28L32 28L32 27L33 27L33 26L32 26L32 25L34 25L34 27L36 27L36 28L37 28L37 26L36 26L36 25L37 25L37 22L36 22L36 21L37 21L37 18L36 18L36 17L37 17L37 14L36 14L36 13L37 13L37 12L36 12L36 11L37 11L37 10L36 10L36 8L35 8L35 9L34 9L34 8L33 8L33 11L32 11L32 8L31 8L31 10L29 10L29 9L30 9L30 8L27 8L27 9L28 9L28 10L26 10L26 8L25 8L25 5L26 5L26 7L27 7L27 6L28 6L28 7L29 7L29 6L28 6L28 5L29 5L29 4L28 4L28 3L27 3L27 2L29 2L29 0L28 0L28 1L26 1L26 3L25 3L25 1L24 1L24 0L23 0L23 1L22 1L22 2L19 2L19 1L21 1L21 0L18 0L18 2L19 2L19 3L20 3L20 4L18 4L18 3L17 3L17 2L16 2L16 4L12 4L12 2L13 2L13 1L11 1L11 2L10 2L10 0ZM15 0L15 1L17 1L17 0ZM23 1L23 2L24 2L24 1ZM14 2L14 3L15 3L15 2ZM10 3L10 4L11 4L11 3ZM21 3L21 4L22 4L22 6L21 6L21 7L20 7L20 5L19 5L19 7L18 7L18 6L17 6L17 7L16 7L16 6L15 6L15 7L14 7L14 6L13 6L13 7L14 7L14 8L15 8L15 7L16 7L16 9L17 9L17 8L18 8L18 10L19 10L19 11L20 11L20 12L19 12L19 13L20 13L20 12L21 12L21 13L22 13L22 14L23 14L23 15L22 15L22 16L21 16L21 14L17 14L17 15L16 15L16 16L15 16L15 15L14 15L14 16L13 16L13 17L12 17L12 15L13 15L13 14L12 14L12 13L10 13L10 14L11 14L11 15L10 15L10 17L11 17L11 18L9 18L9 20L8 20L8 22L9 22L9 21L11 21L11 23L10 23L10 24L11 24L11 26L13 26L13 27L12 27L12 29L15 29L15 30L16 30L16 31L17 31L17 32L18 32L18 33L17 33L17 34L19 34L19 31L21 31L21 30L19 30L19 29L22 29L22 28L19 28L19 27L20 27L20 26L19 26L19 27L16 27L16 28L14 28L14 27L15 27L15 26L16 26L16 24L18 24L18 25L17 25L17 26L18 26L18 25L20 25L20 24L21 24L21 25L22 25L22 26L23 26L23 27L24 27L24 28L26 28L26 27L24 27L24 26L23 26L23 25L22 25L22 24L21 24L21 23L24 23L24 24L26 24L26 26L28 26L28 27L27 27L27 29L24 29L24 30L23 30L23 31L22 31L22 32L20 32L20 33L22 33L22 32L24 32L24 31L25 31L25 32L26 32L26 31L27 31L27 32L28 32L28 30L27 30L27 29L28 29L28 27L29 27L29 28L30 28L30 27L29 27L29 26L28 26L28 25L29 25L29 24L31 24L31 25L30 25L30 26L31 26L31 25L32 25L32 23L33 23L33 24L36 24L36 23L34 23L34 22L35 22L35 21L34 21L34 22L33 22L33 21L32 21L32 23L31 23L31 21L29 21L29 20L28 20L28 19L29 19L29 18L30 18L30 20L32 20L32 18L33 18L33 20L36 20L36 19L34 19L34 17L32 17L32 16L33 16L33 15L34 15L34 16L35 16L35 17L36 17L36 15L34 15L34 13L32 13L32 12L31 12L31 11L29 11L29 12L28 12L28 13L25 13L25 12L27 12L27 11L25 11L25 9L24 9L24 10L19 10L19 8L20 8L20 9L22 9L22 8L21 8L21 7L22 7L22 6L23 6L23 8L24 8L24 5L25 5L25 4L24 4L24 3L23 3L23 4L22 4L22 3ZM16 4L16 5L18 5L18 4ZM23 4L23 5L24 5L24 4ZM26 4L26 5L28 5L28 4ZM8 5L8 7L9 7L9 5ZM0 8L0 10L3 10L3 9L5 9L5 8ZM35 10L35 11L34 11L34 12L35 12L35 13L36 13L36 12L35 12L35 11L36 11L36 10ZM6 11L6 12L7 12L7 11ZM14 11L14 12L15 12L15 11ZM21 11L21 12L22 12L22 13L23 13L23 14L24 14L24 13L23 13L23 12L25 12L25 11L23 11L23 12L22 12L22 11ZM29 12L29 13L28 13L28 14L27 14L27 15L26 15L26 16L25 16L25 15L24 15L24 17L23 17L23 18L22 18L22 19L21 19L21 16L20 16L20 17L19 17L19 18L17 18L17 17L18 17L18 16L16 16L16 18L15 18L15 19L14 19L14 20L16 20L16 22L15 22L15 21L12 21L12 19L13 19L13 18L11 18L11 19L10 19L10 20L11 20L11 21L12 21L12 22L13 22L13 23L12 23L12 25L13 25L13 24L14 24L14 25L15 25L15 24L16 24L16 23L17 23L17 21L18 21L18 22L20 22L20 23L19 23L19 24L20 24L20 23L21 23L21 22L24 22L24 21L26 21L26 22L27 22L27 25L28 25L28 24L29 24L29 23L30 23L30 22L29 22L29 23L28 23L28 22L27 22L27 20L24 20L24 21L23 21L23 18L24 18L24 19L25 19L25 18L24 18L24 17L26 17L26 18L27 18L27 19L28 19L28 18L29 18L29 17L31 17L31 18L32 18L32 17L31 17L31 16L32 16L32 14L30 14L30 13L31 13L31 12ZM2 14L2 15L3 15L3 14ZM5 14L5 17L4 17L4 18L5 18L5 19L6 19L6 20L7 20L7 19L8 19L8 17L9 17L9 16L8 16L8 17L6 17L6 16L7 16L7 15L6 15L6 14ZM28 14L28 15L27 15L27 16L28 16L28 15L29 15L29 16L31 16L31 15L30 15L30 14ZM0 16L0 18L1 18L1 16ZM14 16L14 17L15 17L15 16ZM27 17L27 18L28 18L28 17ZM6 18L6 19L7 19L7 18ZM19 18L19 19L16 19L16 20L18 20L18 21L19 21L19 19L20 19L20 18ZM0 19L0 21L1 21L1 19ZM20 20L20 22L21 22L21 21L22 21L22 20ZM6 21L6 22L7 22L7 21ZM6 23L6 24L7 24L7 25L6 25L6 26L7 26L7 25L8 25L8 23ZM14 23L14 24L15 24L15 23ZM0 24L0 29L1 29L1 26L2 26L2 24ZM2 27L2 29L4 29L4 28L3 28L3 27ZM16 28L16 30L17 30L17 29L18 29L18 28ZM29 29L29 32L32 32L32 29ZM33 29L33 33L34 33L34 32L35 32L35 33L36 33L36 32L35 32L35 30L34 30L34 29ZM30 30L30 31L31 31L31 30ZM14 31L14 32L15 32L15 31ZM9 32L9 33L10 33L10 32ZM24 33L24 34L23 34L23 35L22 35L22 36L27 36L27 35L30 35L30 36L31 36L31 34L30 34L30 33ZM11 34L11 37L12 37L12 35L13 35L13 34ZM26 34L26 35L27 35L27 34ZM0 0L0 7L7 7L7 0ZM1 1L1 6L6 6L6 1ZM2 2L2 5L5 5L5 2ZM30 0L30 7L37 7L37 0ZM31 1L31 6L36 6L36 1ZM32 2L32 5L35 5L35 2ZM0 30L0 37L7 37L7 30ZM1 31L1 36L6 36L6 31ZM2 32L2 35L5 35L5 32Z" fill="#000000"/></g></g></svg>
