<?xml version="1.0" encoding="UTF-8"?>
<svg xmlns="http://www.w3.org/2000/svg" version="1.1" width="400" height="400" viewBox="0 0 400 400"><rect x="0" y="0" width="400" height="400" fill="#ffffff"/><g transform="scale(13.793)"><g transform="translate(0,0)"><path fill-rule="evenodd" d="M9 0L9 1L8 1L8 3L9 3L9 4L8 4L8 8L6 8L6 9L4 9L4 8L3 8L3 9L2 9L2 8L0 8L0 10L1 10L1 9L2 9L2 10L3 10L3 11L2 11L2 12L3 12L3 11L4 11L4 12L5 12L5 14L2 14L2 13L1 13L1 11L0 11L0 13L1 13L1 15L0 15L0 16L1 16L1 18L0 18L0 19L1 19L1 18L2 18L2 20L3 20L3 21L4 21L4 19L5 19L5 18L4 18L4 17L3 17L3 15L5 15L5 16L6 16L6 17L7 17L7 16L8 16L8 15L9 15L9 16L10 16L10 17L9 17L9 18L12 18L12 17L13 17L13 19L12 19L12 20L10 20L10 21L8 21L8 18L6 18L6 19L7 19L7 20L5 20L5 21L8 21L8 23L10 23L10 24L9 24L9 25L8 25L8 26L9 26L9 27L8 27L8 29L9 29L9 27L11 27L11 28L10 28L10 29L13 29L13 28L14 28L14 27L15 27L15 25L14 25L14 21L17 21L17 20L18 20L18 19L19 19L19 20L20 20L20 23L18 23L18 22L17 22L17 23L15 23L15 24L16 24L16 25L17 25L17 26L16 26L16 27L17 27L17 28L16 28L16 29L18 29L18 28L19 28L19 29L21 29L21 27L22 27L22 26L24 26L24 28L23 28L23 29L24 29L24 28L25 28L25 29L26 29L26 28L25 28L25 26L27 26L27 25L25 25L25 20L24 20L24 17L22 17L22 16L24 16L24 15L25 15L25 17L26 17L26 15L27 15L27 17L28 17L28 18L27 18L27 20L26 20L26 22L27 22L27 23L26 23L26 24L27 24L27 23L28 23L28 25L29 25L29 23L28 23L28 22L29 22L29 21L27 21L27 20L29 20L29 17L28 17L28 15L29 15L29 14L27 14L27 13L29 13L29 12L28 12L28 10L29 10L29 9L28 9L28 8L26 8L26 9L25 9L25 8L22 8L22 9L21 9L21 8L20 8L20 9L21 9L21 10L19 10L19 9L16 9L16 11L15 11L15 6L16 6L16 7L17 7L17 8L19 8L19 6L20 6L20 7L21 7L21 4L20 4L20 5L19 5L19 3L21 3L21 1L20 1L20 0L18 0L18 1L17 1L17 2L16 2L16 0L14 0L14 4L13 4L13 5L12 5L12 4L11 4L11 5L10 5L10 3L9 3L9 1L10 1L10 2L12 2L12 0ZM19 1L19 2L20 2L20 1ZM15 2L15 4L14 4L14 5L13 5L13 7L12 7L12 5L11 5L11 7L12 7L12 8L10 8L10 5L9 5L9 8L8 8L8 9L10 9L10 10L9 10L9 11L8 11L8 10L7 10L7 9L6 9L6 10L4 10L4 9L3 9L3 10L4 10L4 11L5 11L5 12L9 12L9 13L8 13L8 14L7 14L7 13L6 13L6 14L5 14L5 15L6 15L6 16L7 16L7 15L8 15L8 14L9 14L9 13L10 13L10 16L11 16L11 14L12 14L12 15L13 15L13 14L12 14L12 13L10 13L10 12L9 12L9 11L11 11L11 12L12 12L12 8L14 8L14 6L15 6L15 4L17 4L17 5L16 5L16 6L17 6L17 7L18 7L18 6L19 6L19 5L18 5L18 3L16 3L16 2ZM23 9L23 11L22 11L22 10L21 10L21 11L22 11L22 12L23 12L23 13L22 13L22 15L21 15L21 12L18 12L18 11L17 11L17 12L18 12L18 13L16 13L16 12L15 12L15 11L14 11L14 10L13 10L13 11L14 11L14 12L15 12L15 13L14 13L14 14L15 14L15 16L13 16L13 17L14 17L14 18L15 18L15 19L13 19L13 20L12 20L12 21L11 21L11 22L10 22L10 23L11 23L11 24L10 24L10 25L11 25L11 26L12 26L12 28L13 28L13 26L14 26L14 25L13 25L13 26L12 26L12 23L13 23L13 22L12 22L12 21L13 21L13 20L17 20L17 18L19 18L19 19L20 19L20 20L23 20L23 19L22 19L22 17L21 17L21 16L22 16L22 15L24 15L24 14L25 14L25 15L26 15L26 13L27 13L27 12L26 12L26 13L25 13L25 12L23 12L23 11L24 11L24 10L25 10L25 9ZM26 9L26 10L28 10L28 9ZM6 10L6 11L7 11L7 10ZM19 13L19 14L16 14L16 15L17 15L17 16L16 16L16 18L17 18L17 17L18 17L18 15L19 15L19 17L20 17L20 18L21 18L21 17L20 17L20 15L19 15L19 14L20 14L20 13ZM6 14L6 15L7 15L7 14ZM1 15L1 16L2 16L2 15ZM2 17L2 18L3 18L3 19L4 19L4 18L3 18L3 17ZM25 18L25 19L26 19L26 18ZM0 20L0 21L1 21L1 20ZM21 21L21 24L24 24L24 21ZM22 22L22 23L23 23L23 22ZM17 23L17 24L18 24L18 26L19 26L19 28L20 28L20 24L18 24L18 23ZM21 25L21 26L22 26L22 25ZM28 26L28 27L27 27L27 29L28 29L28 27L29 27L29 26ZM0 0L0 7L7 7L7 0ZM1 1L1 6L6 6L6 1ZM2 2L2 5L5 5L5 2ZM22 0L22 7L29 7L29 0ZM23 1L23 6L28 6L28 1ZM24 2L24 5L27 5L27 2ZM0 22L0 29L7 29L7 22ZM1 23L1 28L6 28L6 23ZM2 24L2 27L5 27L5 24Z" fill="#000000"/></g></g></svg>
