<?xml version="1.0" encoding="UTF-8"?>
<svg xmlns="http://www.w3.org/2000/svg" version="1.1" width="400" height="400" viewBox="0 0 400 400"><rect x="0" y="0" width="400" height="400" fill="#ffffff"/><g transform="scale(16)"><g transform="translate(0,0)"><path fill-rule="evenodd" d="M8 0L8 1L10 1L10 0ZM13 0L13 1L14 1L14 0ZM16 0L16 2L11 2L11 4L10 4L10 3L9 3L9 2L8 2L8 5L9 5L9 6L8 6L8 7L9 7L9 8L8 8L8 9L7 9L7 8L6 8L6 9L7 9L7 10L6 10L6 11L7 11L7 10L8 10L8 9L9 9L9 10L10 10L10 9L9 9L9 8L10 8L10 7L11 7L11 8L12 8L12 7L13 7L13 9L15 9L15 8L16 8L16 10L17 10L17 9L18 9L18 8L16 8L16 7L17 7L17 6L16 6L16 7L15 7L15 5L17 5L17 4L13 4L13 5L12 5L12 3L16 3L16 2L17 2L17 0ZM10 5L10 6L9 6L9 7L10 7L10 6L11 6L11 7L12 7L12 5ZM13 5L13 7L14 7L14 5ZM0 8L0 9L1 9L1 10L0 10L0 13L1 13L1 15L0 15L0 16L1 16L1 15L2 15L2 16L4 16L4 17L7 17L7 16L8 16L8 18L10 18L10 19L12 19L12 20L10 20L10 21L8 21L8 25L11 25L11 24L9 24L9 23L14 23L14 22L15 22L15 23L17 23L17 25L18 25L18 23L19 23L19 21L20 21L20 24L19 24L19 25L25 25L25 24L23 24L23 23L24 23L24 22L25 22L25 21L22 21L22 20L21 20L21 17L22 17L22 19L23 19L23 20L25 20L25 15L24 15L24 14L25 14L25 12L23 12L23 11L21 11L21 12L20 12L20 13L19 13L19 11L20 11L20 9L23 9L23 10L24 10L24 9L25 9L25 8L24 8L24 9L23 9L23 8L20 8L20 9L19 9L19 10L18 10L18 11L17 11L17 15L15 15L15 14L16 14L16 13L15 13L15 14L14 14L14 13L13 13L13 14L12 14L12 12L16 12L16 11L15 11L15 10L14 10L14 11L11 11L11 13L10 13L10 12L9 12L9 11L8 11L8 12L9 12L9 13L8 13L8 14L4 14L4 13L5 13L5 11L1 11L1 10L5 10L5 9L4 9L4 8ZM1 12L1 13L2 13L2 15L3 15L3 13L4 13L4 12ZM6 12L6 13L7 13L7 12ZM21 12L21 16L24 16L24 15L22 15L22 14L24 14L24 13L22 13L22 12ZM9 14L9 15L10 15L10 16L12 16L12 17L11 17L11 18L12 18L12 17L14 17L14 18L13 18L13 20L14 20L14 21L16 21L16 22L17 22L17 21L16 21L16 20L15 20L15 19L16 19L16 16L15 16L15 15L14 15L14 14L13 14L13 15L14 15L14 16L12 16L12 14L11 14L11 15L10 15L10 14ZM19 14L19 15L18 15L18 16L19 16L19 15L20 15L20 14ZM5 15L5 16L7 16L7 15ZM17 17L17 20L20 20L20 17ZM23 17L23 18L24 18L24 17ZM18 18L18 19L19 19L19 18ZM11 21L11 22L12 22L12 21ZM21 22L21 24L22 24L22 22ZM12 24L12 25L13 25L13 24ZM14 24L14 25L15 25L15 24ZM0 0L0 7L7 7L7 0ZM1 1L1 6L6 6L6 1ZM2 2L2 5L5 5L5 2ZM18 0L18 7L25 7L25 0ZM19 1L19 6L24 6L24 1ZM20 2L20 5L23 5L23 2ZM0 18L0 25L7 25L7 18ZM1 19L1 24L6 24L6 19ZM2 20L2 23L5 23L5 20Z" fill="#000000"/></g></g></svg>
